<svg width="120" height="19" viewBox="0 0 120 19" fill="none" xmlns="http://www.w3.org/2000/svg">
<g clip-path="url(#clip0_1658_24390)">
<path d="M116.692 7.28418H111.743H95.0147C93.2281 7.28418 91.7794 8.80389 91.7794 10.6788V14.8354C91.7794 15.4101 91.756 16.0107 91.7794 16.4477C91.8523 17.7284 93.7742 18.23 95.0147 18.23H111.743H116.692H120.153L113.116 12.7582L120.153 7.28633H116.692V7.28418Z" fill="url(#paint0_linear_1658_24390)"/>
<path d="M91.8497 16.7429C91.8497 16.7429 91.6287 16.6697 91.8992 11.9556C91.9096 11.7489 103.046 13.0771 102.677 15.5353C102.357 17.6749 100.078 17.5178 98.6714 17.055C98.6714 17.055 96.8795 16.5621 95.7118 16.0842C94.2294 15.4772 92.721 15.701 91.8497 16.7429Z" fill="url(#paint1_linear_1658_24390)"/>
<path d="M3.07159 7.28418H8.02076H24.7486C26.5353 7.28418 27.9839 8.80389 27.9839 10.6788V14.8354C27.9839 15.4101 28.0073 16.0107 27.9839 16.4477C27.9111 17.7284 25.9866 18.23 24.7486 18.23H8.02076H3.07159H-0.392578L6.64498 12.7582L-0.392578 7.28418H3.07159Z" fill="url(#paint2_linear_1658_24390)"/>
<path d="M24.8266 18.1699H8.09879H3.14961H-0.314556L-0.392578 18.2302H3.06899H8.01816H24.746C25.5809 18.2302 26.7252 18.002 27.4066 17.4639C26.72 17.959 25.6277 18.1699 24.8266 18.1699Z" fill="url(#paint3_linear_1658_24390)"/>
<path d="M6.7256 12.6979L-0.236535 7.28418H-0.392578L6.64758 12.756L6.7256 12.6979Z" fill="url(#paint4_linear_1658_24390)"/>
<path d="M94.937 18.1699H111.665H116.614H120.076L120.154 18.2302H116.692H111.743H95.015C94.1802 18.2302 93.0359 18.002 92.3545 17.4639C93.0437 17.959 94.136 18.1699 94.937 18.1699Z" fill="url(#paint5_linear_1658_24390)"/>
<path d="M113.038 12.6979L120 7.28418H120.156L113.116 12.756L113.038 12.6979Z" fill="url(#paint6_linear_1658_24390)"/>
<path d="M27.9138 16.7422C27.9138 16.7422 28.1349 16.669 27.8644 11.9548C27.854 11.7482 16.7931 13.1323 17.1598 15.5905C17.4823 17.728 19.6825 17.5171 21.0895 17.0543C21.0895 17.0543 22.8814 16.5592 24.0491 16.0813C25.5341 15.4764 27.0426 15.7003 27.9138 16.7422Z" fill="url(#paint7_linear_1658_24390)"/>
<path fill-rule="evenodd" clip-rule="evenodd" d="M102.146 12.2418C100.926 9.3165 98.8847 4.4108 97.6675 1.48761C97.1292 0.230514 94.5675 -0.120355 91.9381 0.579229C89.6261 1.19486 87.2958 1.74377 84.9526 2.22379C77.3533 3.7801 69.6057 4.61745 61.8477 4.73799C60.5526 4.75736 59.2574 4.75736 57.9622 4.73799C50.2043 4.6196 42.4567 3.7801 34.8574 2.22379C32.5142 1.74377 30.1839 1.19486 27.8719 0.579229C25.2373 -0.122508 22.673 0.228361 22.1373 1.48331C20.9201 4.40865 18.876 9.31435 17.6588 12.2397C17.5288 12.5497 17.0061 14.967 17.1673 15.3222C18.348 14.756 18.863 13.0727 23.3336 13.2815C26.2932 13.542 28.6313 14.6118 31.3074 15.1586C31.3074 15.165 31.3048 15.1693 31.3048 15.1758C40.7064 17.0959 50.3057 18.0538 59.9024 18.0495C69.4991 18.0538 79.0983 17.098 88.5 15.1779C88.5 15.1736 88.4974 15.1672 88.4974 15.1629C91.1735 14.614 93.6104 13.6841 96.4712 13.2837C100.95 13.09 101.967 14.3406 102.713 15.1543C102.872 14.7969 102.273 12.5518 102.146 12.2418Z" fill="url(#paint8_linear_1658_24390)"/>
<path d="M57.9596 4.73548C50.2017 4.61708 42.4541 3.77758 34.8548 2.22128C32.5116 1.74125 30.1813 1.19235 27.8693 0.576715C25.2373 -0.122869 22.673 0.228 22.1373 1.48295C20.9201 4.40829 18.876 9.31399 17.6588 12.2393C17.5288 12.5493 17.0061 14.9666 17.1673 15.3218C18.348 14.7557 18.863 13.0724 23.3336 13.2812C26.2932 13.5416 28.6313 14.6115 31.3074 15.1582C31.3074 15.1647 31.3048 15.169 31.3048 15.1754C40.7064 17.0955 50.3057 18.0534 59.9024 18.0491C59.9128 18.0491 59.9258 18.0491 59.9362 18.0491V4.75054C59.2782 4.75054 58.6176 4.74624 57.9596 4.73548Z" fill="url(#paint9_linear_1658_24390)"/>
<path d="M102.146 12.2412C100.926 9.31585 98.8848 4.41015 97.6677 1.48697C97.1293 0.229867 94.5676 -0.121001 91.9383 0.578583C89.6262 1.19422 87.296 1.74312 84.9527 2.22314C77.3534 3.77945 69.6059 4.6168 61.8479 4.73734C61.2107 4.74811 60.5761 4.75241 59.939 4.75241V18.051C69.5252 18.0531 79.1115 17.0974 88.5027 15.1794C88.5027 15.1751 88.5001 15.1687 88.5001 15.1644C91.1763 14.6155 93.6132 13.6856 96.474 13.2852C100.952 13.0915 101.969 14.3421 102.716 15.1558C102.872 14.7963 102.274 12.5512 102.146 12.2412Z" fill="url(#paint10_linear_1658_24390)"/>
<path d="M59.6355 16.876C59.0195 16.876 58.4675 16.776 57.9795 16.576C57.4915 16.376 57.0995 16.08 56.8035 15.688C56.5155 15.296 56.3635 14.824 56.3475 14.272H58.5315C58.5635 14.584 58.6715 14.824 58.8555 14.992C59.0395 15.152 59.2795 15.232 59.5755 15.232C59.8795 15.232 60.1195 15.164 60.2955 15.028C60.4715 14.884 60.5595 14.688 60.5595 14.44C60.5595 14.232 60.4875 14.06 60.3435 13.924C60.2075 13.788 60.0355 13.676 59.8275 13.588C59.6275 13.5 59.3395 13.4 58.9635 13.288C58.4195 13.12 57.9755 12.952 57.6315 12.784C57.2875 12.616 56.9915 12.368 56.7435 12.04C56.4955 11.712 56.3715 11.284 56.3715 10.756C56.3715 9.97199 56.6555 9.35999 57.2235 8.91999C57.7915 8.47199 58.5315 8.24799 59.4435 8.24799C60.3715 8.24799 61.1195 8.47199 61.6875 8.91999C62.2555 9.35999 62.5595 9.97599 62.5995 10.768H60.3795C60.3635 10.496 60.2635 10.284 60.0795 10.132C59.8955 9.97199 59.6595 9.89199 59.3715 9.89199C59.1235 9.89199 58.9235 9.95999 58.7715 10.096C58.6195 10.224 58.5435 10.412 58.5435 10.66C58.5435 10.932 58.6715 11.144 58.9275 11.296C59.1835 11.448 59.5835 11.612 60.1275 11.788C60.6715 11.972 61.1115 12.148 61.4475 12.316C61.7915 12.484 62.0875 12.728 62.3355 13.048C62.5835 13.368 62.7075 13.78 62.7075 14.284C62.7075 14.764 62.5835 15.2 62.3355 15.592C62.0955 15.984 61.7435 16.296 61.2795 16.528C60.8155 16.76 60.2675 16.876 59.6355 16.876Z" fill="#919090"/>
<path d="M102.711 14.9577C101.964 14.144 100.947 12.8955 96.4688 13.0871C93.608 13.4875 91.1711 14.4174 88.495 14.9641C88.495 14.9706 88.4976 14.9749 88.5002 14.9813C79.096 16.9014 69.4993 17.8593 59.9026 17.8529C50.306 17.8572 40.7067 16.9014 31.3051 14.9792C31.3051 14.9727 31.3077 14.9684 31.3103 14.962C28.6341 14.4152 26.2961 13.3454 23.3364 13.0849C18.8658 12.8783 18.3509 14.5594 17.1701 15.1256C17.1545 15.0933 17.1467 15.0438 17.1415 14.9792C17.1337 15.1385 17.1415 15.259 17.1701 15.3193C18.3509 14.7532 18.8658 13.0699 23.3364 13.2787C26.2961 13.5391 28.6341 14.609 31.3103 15.1557C31.3077 15.1622 31.3077 15.1665 31.3051 15.1729C40.7067 17.093 50.306 18.0509 59.9026 18.0466C69.4993 18.0509 79.0986 17.0952 88.5002 15.1751C88.4976 15.1708 88.4976 15.1643 88.495 15.16C91.1711 14.6111 93.608 13.6812 96.4688 13.2808C100.947 13.0871 101.964 14.3377 102.711 15.1514C102.737 15.0933 102.742 14.9878 102.734 14.8457C102.729 14.8909 102.721 14.9318 102.711 14.9577Z" fill="url(#paint11_linear_1658_24390)"/>
</g>
<defs>
<linearGradient id="paint0_linear_1658_24390" x1="91.7696" y1="12.7567" x2="120.155" y2="12.7567" gradientUnits="userSpaceOnUse">
<stop stop-color="#3A3A3A"/>
<stop offset="0.00142264" stop-color="#474746"/>
<stop offset="0.00349925" stop-color="#575756"/>
<stop offset="0.00588457" stop-color="#656563"/>
<stop offset="0.00866976" stop-color="#706F6D"/>
<stop offset="0.0121" stop-color="#777775"/>
<stop offset="0.0169" stop-color="#7C7C79"/>
<stop offset="0.0303" stop-color="#7D7D7B"/>
<stop offset="0.2909" stop-color="#B3B6B5"/>
<stop offset="0.3394" stop-color="#BEC0C2"/>
<stop offset="0.4545" stop-color="#9E9D9E"/>
<stop offset="0.4971" stop-color="#AAAAAA"/>
<stop offset="0.5638" stop-color="#BAB9B9"/>
<stop offset="0.6121" stop-color="#BFBFBF"/>
<stop offset="0.6694" stop-color="#B4B3B3"/>
<stop offset="0.765" stop-color="#9A9A98"/>
<stop offset="0.8667" stop-color="#7D7D7B"/>
<stop offset="1" stop-color="#3A3A3A"/>
</linearGradient>
<linearGradient id="paint1_linear_1658_24390" x1="91.7641" y1="14.6395" x2="102.685" y2="14.6395" gradientUnits="userSpaceOnUse">
<stop stop-color="#1B1B1B"/>
<stop offset="0.121" stop-color="#353535"/>
<stop offset="0.3758" stop-color="#70706F"/>
<stop offset="0.4056" stop-color="#6D6D6C"/>
<stop offset="0.4456" stop-color="#646362"/>
<stop offset="0.4914" stop-color="#545453"/>
<stop offset="0.5416" stop-color="#3F3F3F"/>
<stop offset="0.5947" stop-color="#262626"/>
<stop offset="0.6121" stop-color="#1B1B1B"/>
<stop offset="1" stop-color="#3A3A3A"/>
</linearGradient>
<linearGradient id="paint2_linear_1658_24390" x1="-0.392006" y1="12.7567" x2="27.9941" y2="12.7567" gradientUnits="userSpaceOnUse">
<stop stop-color="#3A3A3A"/>
<stop offset="0.1333" stop-color="#7D7D7B"/>
<stop offset="0.235" stop-color="#9A9A98"/>
<stop offset="0.3306" stop-color="#B4B3B3"/>
<stop offset="0.3879" stop-color="#BFBFBF"/>
<stop offset="0.4362" stop-color="#BAB9B9"/>
<stop offset="0.5029" stop-color="#AAAAAA"/>
<stop offset="0.5455" stop-color="#9E9D9E"/>
<stop offset="0.6606" stop-color="#BEC0C2"/>
<stop offset="0.7091" stop-color="#B3B6B5"/>
<stop offset="0.9697" stop-color="#7D7D7B"/>
<stop offset="0.9831" stop-color="#7C7C79"/>
<stop offset="0.9879" stop-color="#777775"/>
<stop offset="0.9913" stop-color="#706F6D"/>
<stop offset="0.9941" stop-color="#656563"/>
<stop offset="0.9965" stop-color="#575756"/>
<stop offset="0.9986" stop-color="#474746"/>
<stop offset="1" stop-color="#3A3A3A"/>
</linearGradient>
<linearGradient id="paint3_linear_1658_24390" x1="-0.392006" y1="17.8455" x2="27.4076" y2="17.8455" gradientUnits="userSpaceOnUse">
<stop stop-color="#3A3A3A"/>
<stop offset="0.0121" stop-color="#3A3A3A"/>
<stop offset="0.2606" stop-color="#8E8D8D"/>
<stop offset="0.3559" stop-color="#99999A"/>
<stop offset="0.4" stop-color="#A1A1A3"/>
<stop offset="0.6061" stop-color="#7D7D7B"/>
<stop offset="1" stop-color="#3A3A3A"/>
</linearGradient>
<linearGradient id="paint4_linear_1658_24390" x1="-0.371668" y1="6.96194" x2="5.2718" y2="14.0154" gradientUnits="userSpaceOnUse">
<stop stop-color="#3A3A3A"/>
<stop offset="0.0121" stop-color="#3A3A3A"/>
<stop offset="0.2606" stop-color="#8E8D8D"/>
<stop offset="0.3559" stop-color="#99999A"/>
<stop offset="0.4" stop-color="#A1A1A3"/>
<stop offset="0.6061" stop-color="#7D7D7B"/>
<stop offset="1" stop-color="#3A3A3A"/>
</linearGradient>
<linearGradient id="paint5_linear_1658_24390" x1="120.155" y1="17.8455" x2="92.3561" y2="17.8455" gradientUnits="userSpaceOnUse">
<stop stop-color="#3A3A3A"/>
<stop offset="0.0121" stop-color="#3A3A3A"/>
<stop offset="0.2606" stop-color="#8E8D8D"/>
<stop offset="0.3559" stop-color="#99999A"/>
<stop offset="0.4" stop-color="#A1A1A3"/>
<stop offset="0.6061" stop-color="#7D7D7B"/>
<stop offset="1" stop-color="#3A3A3A"/>
</linearGradient>
<linearGradient id="paint6_linear_1658_24390" x1="120.135" y1="6.962" x2="114.491" y2="14.0156" gradientUnits="userSpaceOnUse">
<stop stop-color="#3A3A3A"/>
<stop offset="0.0121" stop-color="#3A3A3A"/>
<stop offset="0.2606" stop-color="#8E8D8D"/>
<stop offset="0.3559" stop-color="#99999A"/>
<stop offset="0.4" stop-color="#A1A1A3"/>
<stop offset="0.6061" stop-color="#7D7D7B"/>
<stop offset="1" stop-color="#3A3A3A"/>
</linearGradient>
<linearGradient id="paint7_linear_1658_24390" x1="17.1524" y1="14.6478" x2="27.9992" y2="14.6478" gradientUnits="userSpaceOnUse">
<stop stop-color="#1B1B1B"/>
<stop offset="0.121" stop-color="#353535"/>
<stop offset="0.3758" stop-color="#70706F"/>
<stop offset="0.4056" stop-color="#6D6D6C"/>
<stop offset="0.4456" stop-color="#646362"/>
<stop offset="0.4914" stop-color="#545453"/>
<stop offset="0.5416" stop-color="#3F3F3F"/>
<stop offset="0.5947" stop-color="#262626"/>
<stop offset="0.6121" stop-color="#1B1B1B"/>
<stop offset="1" stop-color="#3A3A3A"/>
</linearGradient>
<linearGradient id="paint8_linear_1658_24390" x1="17.1365" y1="9.13517" x2="102.738" y2="9.13517" gradientUnits="userSpaceOnUse">
<stop stop-color="#BFBFBF"/>
<stop offset="0.0545" stop-color="#BFBFBF"/>
<stop offset="0.4848" stop-color="#BEC0C2"/>
<stop offset="0.5724" stop-color="#B8B9BB"/>
<stop offset="0.6896" stop-color="#A8A8A9"/>
<stop offset="0.8232" stop-color="#919090"/>
<stop offset="0.8364" stop-color="#8E8D8D"/>
<stop offset="0.8944" stop-color="#99999A"/>
<stop offset="0.9212" stop-color="#A1A1A3"/>
<stop offset="0.9818" stop-color="#7D7D7B"/>
<stop offset="1" stop-color="#3A3A3A"/>
</linearGradient>
<linearGradient id="paint9_linear_1658_24390" x1="59.6086" y1="16.1547" x2="21.8619" y2="0.144211" gradientUnits="userSpaceOnUse">
<stop stop-color="#BFBFBF"/>
<stop offset="0.0545" stop-color="#BFBFBF"/>
<stop offset="0.4848" stop-color="#BEC0C2"/>
<stop offset="0.5724" stop-color="#B8B9BB"/>
<stop offset="0.6896" stop-color="#A8A8A9"/>
<stop offset="0.8232" stop-color="#919090"/>
<stop offset="0.8364" stop-color="#8E8D8D"/>
<stop offset="0.8944" stop-color="#99999A"/>
<stop offset="0.9212" stop-color="#A1A1A3"/>
<stop offset="0.9818" stop-color="#7D7D7B"/>
<stop offset="1" stop-color="#3A3A3A"/>
</linearGradient>
<linearGradient id="paint10_linear_1658_24390" x1="61.5156" y1="15.5791" x2="98.8465" y2="0.0956802" gradientUnits="userSpaceOnUse">
<stop stop-color="#BFBFBF"/>
<stop offset="0.0545" stop-color="#BFBFBF"/>
<stop offset="0.4848" stop-color="#BEC0C2"/>
<stop offset="0.5724" stop-color="#B8B9BB"/>
<stop offset="0.6896" stop-color="#A8A8A9"/>
<stop offset="0.8232" stop-color="#919090"/>
<stop offset="0.8364" stop-color="#8E8D8D"/>
<stop offset="0.8944" stop-color="#99999A"/>
<stop offset="0.9212" stop-color="#A1A1A3"/>
<stop offset="0.9818" stop-color="#7D7D7B"/>
<stop offset="1" stop-color="#3A3A3A"/>
</linearGradient>
<linearGradient id="paint11_linear_1658_24390" x1="17.1367" y1="15.5576" x2="102.737" y2="15.5576" gradientUnits="userSpaceOnUse">
<stop stop-color="#3A3A3A"/>
<stop offset="0.0121" stop-color="#3A3A3A"/>
<stop offset="0.2606" stop-color="#8E8D8D"/>
<stop offset="0.3559" stop-color="#99999A"/>
<stop offset="0.4" stop-color="#A1A1A3"/>
<stop offset="0.6061" stop-color="#7D7D7B"/>
<stop offset="1" stop-color="#3A3A3A"/>
</linearGradient>
<clipPath id="clip0_1658_24390">
<rect width="120" height="17.8512" fill="white" transform="translate(0 0.22168)"/>
</clipPath>
</defs>
</svg>
